<svg width="32" height="32" viewBox="0 0 32 32" fill="none" xmlns="http://www.w3.org/2000/svg">
<path d="M14.2388 0.337646C12.7364 2.49381 14.2286 8.1944 14.5552 10.7793L15.8209 10.4629C15.4689 7.67757 15.7985 2.6206 14.2388 0.337646Z" fill="#5D63AF"/>
<path d="M18.3526 0.654297L16.1377 10.4631L17.4033 10.7795L19.3018 0.97071L18.3526 0.654297Z" fill="#5D63AF"/>
<path d="M9.17592 1.91968L12.6565 11.0957L6.64462 3.81816L5.37897 4.13457L11.3908 12.3613L2.84766 6.98229L2.53125 8.24794L11.0744 13.627L12.6565 11.0957L14.2385 10.7792L10.4416 1.60327L9.17592 1.91968Z" fill="#5D63AF"/>
<path d="M22.4659 1.91968L17.7197 11.0957C19.9271 11.4297 23.9619 3.62764 22.4659 1.91968Z" fill="#5D63AF"/>
<path d="M19.3018 12.3612C22.1481 11.7612 25.5818 7.39809 27.2121 5.08375C24.557 4.86131 19.9838 9.93138 19.3018 12.3612Z" fill="#5D63AF"/>
<path d="M0.949225 11.0957L0.632812 12.0449C3.30884 13.4494 7.41933 14.7545 10.4416 14.8927C9.62248 12.5371 3.24157 11.5701 0.949225 11.0957Z" fill="#5D63AF"/>
<path d="M0 15.5256V16.7913H10.1252V15.5256H0Z" fill="#5D63AF"/>
<path d="M21.1992 16.7911L31.3244 16.4747V15.8418C29.3155 15.248 21.9548 14.5145 21.1992 16.7911Z" fill="#5D63AF"/>
<path d="M20.8838 17.4241C21.705 19.7842 28.0866 20.7472 30.3762 21.221L30.6926 20.9046V20.2718C27.9993 18.8582 23.9254 17.5567 20.8838 17.4241Z" fill="#5D63AF"/>
<path d="M20.5664 18.6895L19.9336 19.9551L28.4767 25.3341L28.7932 24.0685L20.5664 18.6895Z" fill="#5D63AF"/>
<path d="M4.42969 27.2325L4.7461 27.5489L12.34 20.9042C10.3012 19.0307 5.27948 25.4102 4.42969 27.2325Z" fill="#5D63AF"/>
<path d="M20.8833 30.7132H22.1489L18.6684 20.9044H18.9848C20.2824 23.4192 23.0503 27.2703 25.6294 28.4983L25.9459 28.1819C24.9225 25.8857 22.4579 22.5955 20.4753 21.0186C19.6299 20.3463 18.0292 20.4981 17.6268 21.6607C16.9124 23.7254 20.2989 28.5777 20.8833 30.7132Z" fill="#5D63AF"/>
<path d="M12.3395 20.9043C11.4553 23.0282 7.12754 28.5286 8.85898 30.3967L13.6052 21.2207L12.3395 20.9043Z" fill="#5D63AF"/>
<path d="M13.9219 21.5371L12.3398 31.6623C15.2464 30.8121 13.6353 24.0902 15.8204 22.1699C15.8204 24.195 15.5273 31.0213 17.7189 31.6623C17.7175 29.6256 18.1304 23.6525 16.7608 22.1155C16.2057 21.4925 14.6921 21.6208 13.9219 21.5371Z" fill="#5D63AF"/>
</svg>
